<svg width="64.31" height="24.72" viewBox="0 0 56.31 27.72" xmlns="http://www.w3.org/2000/svg"><g id="svgGroup" stroke-linecap="round" fill-rule="evenodd" font-size="9pt" stroke="#000" stroke-width="0.55mm" fill="#000" style="stroke:#000;stroke-width:0.55mm;fill:#000"><path d="M 24.15 21.36 L 21.45 21.36 L 21.45 0.36 L 25.44 0.36 L 31.26 13.65 L 36.99 0.36 L 41.07 0.36 L 41.07 21.36 L 38.22 21.36 L 38.22 3.99 L 32.61 16.62 L 29.79 16.62 L 24.15 3.99 L 24.15 21.36 Z M 2.85 21.36 L 0 21.36 L 0 0.36 L 2.85 0.36 L 2.85 9.33 L 13.2 9.33 L 13.2 0.36 L 16.05 0.36 L 16.05 21.36 L 13.2 21.36 L 13.2 11.79 L 2.85 11.79 L 2.85 21.36 Z M 44.67 19.59 L 46.11 17.19 Q 47.19 18.09 48.54 18.66 A 7.005 7.005 0 0 0 50.151 19.113 A 9.635 9.635 0 0 0 51.69 19.23 A 8.394 8.394 0 0 0 53.054 19.126 Q 54.278 18.924 55.11 18.33 A 3.084 3.084 0 0 0 55.949 17.459 Q 56.344 16.827 56.368 16.01 A 3.634 3.634 0 0 0 56.37 15.9 A 3.582 3.582 0 0 0 56.269 15.032 A 2.945 2.945 0 0 0 56.01 14.355 Q 55.652 13.683 54.625 13.041 A 7.652 7.652 0 0 0 54.615 13.035 A 9.631 9.631 0 0 0 53.873 12.622 Q 53.081 12.221 51.95 11.784 A 35.577 35.577 0 0 0 51.57 11.64 A 27.124 27.124 0 0 1 50.188 11.061 Q 49.51 10.753 48.948 10.444 A 11.849 11.849 0 0 1 48.12 9.945 A 6.579 6.579 0 0 1 47.193 9.211 Q 46.678 8.716 46.361 8.156 A 3.991 3.991 0 0 1 46.275 7.995 A 5 5 0 0 1 45.819 6.594 A 6.878 6.878 0 0 1 45.72 5.4 Q 45.72 3.9 46.545 2.685 A 5.153 5.153 0 0 1 47.881 1.354 A 7.016 7.016 0 0 1 48.975 0.735 A 7.667 7.667 0 0 1 50.745 0.185 Q 51.535 0.035 52.438 0.007 A 13.568 13.568 0 0 1 52.86 0 A 15.869 15.869 0 0 1 54.626 0.094 A 11.831 11.831 0 0 1 56.205 0.375 Q 57.69 0.75 59.1 1.44 L 58.05 3.87 A 9.449 9.449 0 0 0 56.812 3.264 A 12.506 12.506 0 0 0 55.665 2.865 A 10.02 10.02 0 0 0 52.8 2.46 A 8.156 8.156 0 0 0 51.591 2.544 Q 50.446 2.716 49.68 3.24 A 2.97 2.97 0 0 0 49.031 3.829 A 2.208 2.208 0 0 0 48.54 5.25 Q 48.54 6.03 48.87 6.63 A 2.073 2.073 0 0 0 49.19 7.057 Q 49.528 7.411 50.097 7.754 A 7.05 7.05 0 0 0 50.175 7.8 A 9.901 9.901 0 0 0 50.84 8.152 Q 51.521 8.483 52.484 8.857 A 39.004 39.004 0 0 0 53.1 9.09 Q 55.44 9.96 56.805 10.92 Q 58.17 11.88 58.74 13.005 A 5.274 5.274 0 0 1 59.262 14.764 A 6.647 6.647 0 0 1 59.31 15.57 A 6.513 6.513 0 0 1 59.11 17.22 A 5.131 5.131 0 0 1 58.335 18.9 A 5.885 5.885 0 0 1 56.256 20.707 A 7.307 7.307 0 0 1 55.635 21 A 9.156 9.156 0 0 1 53.412 21.601 A 12.008 12.008 0 0 1 51.69 21.72 A 14.21 14.21 0 0 1 49.357 21.536 A 11.415 11.415 0 0 1 47.7 21.135 A 11.462 11.462 0 0 1 46.09 20.48 A 8.53 8.53 0 0 1 44.67 19.59 Z" vector-effect="non-scaling-stroke"/></g></svg>