<svg width="100" height="50.638" viewBox="0 0 150 50.638" xmlns="http://www.w3.org/2000/svg"><g id="svgGroup" stroke-linecap="round" fill-rule="evenodd" font-size="9pt" stroke="#000" stroke-width="1.5mm" fill="#000" style="stroke:#000;stroke-width:1.5mm;fill:#000"><path d="M 73.717 49.964 L 70.954 49.964 L 52.862 4.481 L 52.693 4.481 A 149.063 149.063 0 0 1 52.785 6.417 A 170.251 170.251 0 0 1 52.811 7.092 A 193.399 193.399 0 0 1 52.878 9.205 A 218.648 218.648 0 0 1 52.896 9.939 A 132.237 132.237 0 0 1 52.927 12.239 A 150.455 150.455 0 0 1 52.929 13.039 L 52.929 49.964 L 49.627 49.964 L 49.627 0.708 L 54.883 0.708 L 72.335 44.574 L 72.538 44.574 L 90.125 0.708 L 95.246 0.708 L 95.246 49.964 L 91.843 49.964 L 91.843 12.634 Q 91.843 11.32 91.876 9.939 A 217.435 217.435 0 0 1 91.961 7.193 A 172.267 172.267 0 0 1 92.062 4.87 A 156.599 156.599 0 0 1 92.079 4.548 L 91.876 4.548 L 73.717 49.964 Z M 35.713 0.708 L 35.713 49.964 L 32.243 49.964 L 32.243 25.707 L 3.47 25.707 L 3.47 49.964 L 0 49.964 L 0 0.708 L 3.47 0.708 L 3.47 22.54 L 32.243 22.54 L 32.243 0.708 L 35.713 0.708 Z M 105.993 48.516 L 105.993 45.046 Q 108.452 45.991 111.633 46.716 A 57.792 57.792 0 0 0 112.074 46.814 A 32.415 32.415 0 0 0 116.635 47.466 A 40.266 40.266 0 0 0 119.604 47.572 Q 123.445 47.572 126.427 46.461 A 11.313 11.313 0 0 0 129.166 45.009 A 9.469 9.469 0 0 0 131.127 43.091 A 8.211 8.211 0 0 0 132.623 39.715 A 11.534 11.534 0 0 0 132.845 37.398 A 10.523 10.523 0 0 0 132.635 35.236 Q 132.339 33.825 131.626 32.734 A 6.458 6.458 0 0 0 131.413 32.428 A 9.225 9.225 0 0 0 129.69 30.678 Q 128.594 29.814 127.118 29.093 Q 125.149 28.131 122.479 27.146 A 85.901 85.901 0 0 0 119.908 26.246 A 61.734 61.734 0 0 1 116.672 25.033 A 48.601 48.601 0 0 1 114.399 24.039 Q 111.923 22.877 110.171 21.344 A 10.145 10.145 0 0 1 107.492 17.638 A 11.09 11.09 0 0 1 106.776 15.146 Q 106.581 13.999 106.567 12.697 A 18.72 18.72 0 0 1 106.566 12.5 A 13.279 13.279 0 0 1 106.948 9.236 A 10.079 10.079 0 0 1 108.638 5.643 A 12.389 12.389 0 0 1 112.984 2.016 A 15.314 15.314 0 0 1 114.264 1.432 A 19.636 19.636 0 0 1 119.249 0.177 A 24.947 24.947 0 0 1 122.266 0 Q 125.804 0 128.988 0.657 Q 132.171 1.314 135.136 2.628 L 133.923 5.627 A 30.586 30.586 0 0 0 128.735 3.902 A 27.987 27.987 0 0 0 127.994 3.74 A 29.196 29.196 0 0 0 122.131 3.133 A 20.019 20.019 0 0 0 118.863 3.388 A 15.216 15.216 0 0 0 115.949 4.161 A 10.476 10.476 0 0 0 113.386 5.543 A 8.844 8.844 0 0 0 111.653 7.244 A 7.453 7.453 0 0 0 110.261 10.384 A 10.458 10.458 0 0 0 110.07 12.432 A 11.656 11.656 0 0 0 110.259 14.596 Q 110.5 15.872 111.049 16.887 A 6.506 6.506 0 0 0 111.535 17.654 Q 113.001 19.642 115.713 20.956 Q 118.425 22.27 122.131 23.517 A 68.447 68.447 0 0 1 125.732 24.843 Q 127.355 25.496 128.764 26.177 A 39.011 39.011 0 0 1 129.678 26.633 A 15.14 15.14 0 0 1 132.41 28.418 A 11.786 11.786 0 0 1 134.58 30.76 Q 136.132 32.989 136.296 36.43 A 17.452 17.452 0 0 1 136.315 37.263 A 14.481 14.481 0 0 1 135.92 40.732 A 10.816 10.816 0 0 1 134.092 44.658 Q 131.868 47.64 128.061 49.139 A 21.288 21.288 0 0 1 122.977 50.419 A 27.559 27.559 0 0 1 119.436 50.638 A 54.49 54.49 0 0 1 116.576 50.567 A 40.474 40.474 0 0 1 113.995 50.352 A 44.058 44.058 0 0 1 111.67 50.019 A 32.955 32.955 0 0 1 109.581 49.594 A 33.736 33.736 0 0 1 107.476 49.021 A 26.525 26.525 0 0 1 105.993 48.516 Z" vector-effect="non-scaling-stroke"/></g></svg>