<svg width="50" height="7" viewBox="0 0 50 7" fill="none" xmlns="http://www.w3.org/2000/svg">
<path d="M4.08984 4.41406C4.08984 4.7526 4.00781 5.04688 3.84375 5.29688C3.67969 5.54688 3.4401 5.73958 3.125 5.875C2.8125 6.01042 2.43229 6.07812 1.98438 6.07812C1.78646 6.07812 1.59245 6.0651 1.40234 6.03906C1.21484 6.01302 1.03385 5.97526 0.859375 5.92578C0.6875 5.8737 0.523438 5.8099 0.367188 5.73438V4.60938C0.638021 4.72917 0.919271 4.83724 1.21094 4.93359C1.5026 5.02995 1.79167 5.07812 2.07812 5.07812C2.27604 5.07812 2.4349 5.05208 2.55469 5C2.67708 4.94792 2.76562 4.8763 2.82031 4.78516C2.875 4.69401 2.90234 4.58984 2.90234 4.47266C2.90234 4.32943 2.85417 4.20703 2.75781 4.10547C2.66146 4.00391 2.52865 3.90885 2.35938 3.82031C2.19271 3.73177 2.00391 3.63672 1.79297 3.53516C1.66016 3.47266 1.51562 3.39714 1.35938 3.30859C1.20312 3.21745 1.05469 3.10677 0.914062 2.97656C0.773438 2.84635 0.657552 2.6888 0.566406 2.50391C0.477865 2.31641 0.433594 2.09245 0.433594 1.83203C0.433594 1.49089 0.511719 1.19922 0.667969 0.957031C0.824219 0.714844 1.04688 0.529948 1.33594 0.402344C1.6276 0.272135 1.97135 0.207031 2.36719 0.207031C2.66406 0.207031 2.94661 0.242188 3.21484 0.3125C3.48568 0.380208 3.76823 0.479167 4.0625 0.609375L3.67188 1.55078C3.40885 1.44401 3.17318 1.36198 2.96484 1.30469C2.75651 1.24479 2.54427 1.21484 2.32812 1.21484C2.17708 1.21484 2.04818 1.23958 1.94141 1.28906C1.83464 1.33594 1.75391 1.40365 1.69922 1.49219C1.64453 1.57812 1.61719 1.67839 1.61719 1.79297C1.61719 1.92839 1.65625 2.04297 1.73438 2.13672C1.8151 2.22786 1.9349 2.31641 2.09375 2.40234C2.25521 2.48828 2.45573 2.58854 2.69531 2.70312C2.98698 2.84115 3.23568 2.98568 3.44141 3.13672C3.64974 3.28516 3.8099 3.46094 3.92188 3.66406C4.03385 3.86458 4.08984 4.11458 4.08984 4.41406ZM9.80469 6H8.59766V3.53516H6.33594V6H5.125V0.289062H6.33594V2.52734H8.59766V0.289062H9.80469V6ZM16.4336 3.13672C16.4336 3.57682 16.3789 3.97786 16.2695 4.33984C16.1602 4.69922 15.9935 5.00911 15.7695 5.26953C15.5482 5.52995 15.2669 5.73047 14.9258 5.87109C14.5846 6.00911 14.181 6.07812 13.7148 6.07812C13.2487 6.07812 12.8451 6.00911 12.5039 5.87109C12.1628 5.73047 11.8802 5.52995 11.6562 5.26953C11.4349 5.00911 11.2695 4.69792 11.1602 4.33594C11.0508 3.97396 10.9961 3.57161 10.9961 3.12891C10.9961 2.53776 11.0924 2.02344 11.2852 1.58594C11.4805 1.14583 11.7799 0.804688 12.1836 0.5625C12.5872 0.320312 13.1003 0.199219 13.7227 0.199219C14.3424 0.199219 14.8516 0.320312 15.25 0.5625C15.651 0.804688 15.9479 1.14583 16.1406 1.58594C16.3359 2.02604 16.4336 2.54297 16.4336 3.13672ZM12.2656 3.13672C12.2656 3.53516 12.3151 3.87891 12.4141 4.16797C12.5156 4.45443 12.6732 4.67578 12.8867 4.83203C13.1003 4.98568 13.3763 5.0625 13.7148 5.0625C14.0586 5.0625 14.3372 4.98568 14.5508 4.83203C14.7643 4.67578 14.9193 4.45443 15.0156 4.16797C15.1146 3.87891 15.1641 3.53516 15.1641 3.13672C15.1641 2.53776 15.0521 2.06641 14.8281 1.72266C14.6042 1.37891 14.2357 1.20703 13.7227 1.20703C13.3815 1.20703 13.1029 1.28516 12.8867 1.44141C12.6732 1.59505 12.5156 1.81641 12.4141 2.10547C12.3151 2.39193 12.2656 2.73568 12.2656 3.13672ZM24.6328 0.289062L23.1797 6H21.8008L21.0273 3C21.0117 2.94271 20.9909 2.85547 20.9648 2.73828C20.9388 2.62109 20.9115 2.49349 20.8828 2.35547C20.8542 2.21484 20.8281 2.08333 20.8047 1.96094C20.7839 1.83594 20.7695 1.73698 20.7617 1.66406C20.7539 1.73698 20.7383 1.83464 20.7148 1.95703C20.694 2.07943 20.6693 2.20964 20.6406 2.34766C20.6146 2.48568 20.5885 2.61458 20.5625 2.73438C20.5365 2.85417 20.5156 2.94531 20.5 3.00781L19.7305 6H18.3555L16.8984 0.289062H18.0898L18.8203 3.40625C18.8411 3.5 18.8646 3.61198 18.8906 3.74219C18.9193 3.8724 18.9466 4.00911 18.9727 4.15234C19.0013 4.29297 19.026 4.42969 19.0469 4.5625C19.0703 4.69271 19.0872 4.80599 19.0977 4.90234C19.1107 4.80339 19.1276 4.6888 19.1484 4.55859C19.1693 4.42578 19.1914 4.29167 19.2148 4.15625C19.2409 4.01823 19.2669 3.89062 19.293 3.77344C19.319 3.65625 19.3424 3.5612 19.3633 3.48828L20.1953 0.289062H21.3398L22.1719 3.48828C22.1901 3.55859 22.2109 3.65365 22.2344 3.77344C22.2604 3.89062 22.2865 4.01823 22.3125 4.15625C22.3385 4.29427 22.362 4.42969 22.3828 4.5625C22.4062 4.69271 22.4232 4.80599 22.4336 4.90234C22.4518 4.77214 22.4766 4.61458 22.5078 4.42969C22.5417 4.24219 22.5768 4.05599 22.6133 3.87109C22.6523 3.6862 22.6862 3.53125 22.7148 3.40625L23.4414 0.289062H24.6328ZM27.0156 0.289062C27.5339 0.289062 27.9609 0.351562 28.2969 0.476562C28.6354 0.601562 28.8867 0.790365 29.0508 1.04297C29.2148 1.29557 29.2969 1.61458 29.2969 2C29.2969 2.26042 29.2474 2.48828 29.1484 2.68359C29.0495 2.87891 28.9193 3.04427 28.7578 3.17969C28.5964 3.3151 28.4219 3.42578 28.2344 3.51172L29.9141 6H28.5703L27.207 3.80859H26.5625V6H25.3516V0.289062H27.0156ZM26.9297 1.28125H26.5625V2.82422H26.9531C27.3542 2.82422 27.6406 2.75781 27.8125 2.625C27.987 2.48958 28.0742 2.29167 28.0742 2.03125C28.0742 1.76042 27.9805 1.56771 27.793 1.45312C27.6081 1.33854 27.3203 1.28125 26.9297 1.28125ZM35.8164 3.13672C35.8164 3.57682 35.7617 3.97786 35.6523 4.33984C35.543 4.69922 35.3763 5.00911 35.1523 5.26953C34.931 5.52995 34.6497 5.73047 34.3086 5.87109C33.9674 6.00911 33.5638 6.07812 33.0977 6.07812C32.6315 6.07812 32.2279 6.00911 31.8867 5.87109C31.5456 5.73047 31.263 5.52995 31.0391 5.26953C30.8177 5.00911 30.6523 4.69792 30.543 4.33594C30.4336 3.97396 30.3789 3.57161 30.3789 3.12891C30.3789 2.53776 30.4753 2.02344 30.668 1.58594C30.8633 1.14583 31.1628 0.804688 31.5664 0.5625C31.9701 0.320312 32.4831 0.199219 33.1055 0.199219C33.7253 0.199219 34.2344 0.320312 34.6328 0.5625C35.0339 0.804688 35.3307 1.14583 35.5234 1.58594C35.7188 2.02604 35.8164 2.54297 35.8164 3.13672ZM31.6484 3.13672C31.6484 3.53516 31.6979 3.87891 31.7969 4.16797C31.8984 4.45443 32.056 4.67578 32.2695 4.83203C32.4831 4.98568 32.7591 5.0625 33.0977 5.0625C33.4414 5.0625 33.7201 4.98568 33.9336 4.83203C34.1471 4.67578 34.3021 4.45443 34.3984 4.16797C34.4974 3.87891 34.5469 3.53516 34.5469 3.13672C34.5469 2.53776 34.4349 2.06641 34.2109 1.72266C33.987 1.37891 33.6185 1.20703 33.1055 1.20703C32.7643 1.20703 32.4857 1.28516 32.2695 1.44141C32.056 1.59505 31.8984 1.81641 31.7969 2.10547C31.6979 2.39193 31.6484 2.73568 31.6484 3.13672ZM42.1836 3.13672C42.1836 3.57682 42.1289 3.97786 42.0195 4.33984C41.9102 4.69922 41.7435 5.00911 41.5195 5.26953C41.2982 5.52995 41.0169 5.73047 40.6758 5.87109C40.3346 6.00911 39.931 6.07812 39.4648 6.07812C38.9987 6.07812 38.5951 6.00911 38.2539 5.87109C37.9128 5.73047 37.6302 5.52995 37.4062 5.26953C37.1849 5.00911 37.0195 4.69792 36.9102 4.33594C36.8008 3.97396 36.7461 3.57161 36.7461 3.12891C36.7461 2.53776 36.8424 2.02344 37.0352 1.58594C37.2305 1.14583 37.5299 0.804688 37.9336 0.5625C38.3372 0.320312 38.8503 0.199219 39.4727 0.199219C40.0924 0.199219 40.6016 0.320312 41 0.5625C41.401 0.804688 41.6979 1.14583 41.8906 1.58594C42.0859 2.02604 42.1836 2.54297 42.1836 3.13672ZM38.0156 3.13672C38.0156 3.53516 38.0651 3.87891 38.1641 4.16797C38.2656 4.45443 38.4232 4.67578 38.6367 4.83203C38.8503 4.98568 39.1263 5.0625 39.4648 5.0625C39.8086 5.0625 40.0872 4.98568 40.3008 4.83203C40.5143 4.67578 40.6693 4.45443 40.7656 4.16797C40.8646 3.87891 40.9141 3.53516 40.9141 3.13672C40.9141 2.53776 40.8021 2.06641 40.5781 1.72266C40.3542 1.37891 39.9857 1.20703 39.4727 1.20703C39.1315 1.20703 38.8529 1.28516 38.6367 1.44141C38.4232 1.59505 38.2656 1.81641 38.1641 2.10547C38.0651 2.39193 38.0156 2.73568 38.0156 3.13672ZM45.7852 6L44.4102 1.51953H44.375C44.3802 1.6263 44.388 1.78776 44.3984 2.00391C44.4115 2.21745 44.4232 2.44531 44.4336 2.6875C44.444 2.92969 44.4492 3.14844 44.4492 3.34375V6H43.3672V0.289062H45.0156L46.3672 4.65625H46.3906L47.8242 0.289062H49.4727V6H48.3438V3.29688C48.3438 3.11719 48.3464 2.91016 48.3516 2.67578C48.3594 2.44141 48.3685 2.21875 48.3789 2.00781C48.3893 1.79427 48.3971 1.63411 48.4023 1.52734H48.3672L46.8945 6H45.7852Z" fill="#0095E8"/>
</svg>
