<svg width="56" height="8" viewBox="0 0 56 8" fill="none" xmlns="http://www.w3.org/2000/svg">
<path d="M4.60107 5.21582C4.60107 5.59668 4.50879 5.92773 4.32422 6.20898C4.13965 6.49023 3.87012 6.70703 3.51562 6.85938C3.16406 7.01172 2.73633 7.08789 2.23242 7.08789C2.00977 7.08789 1.7915 7.07324 1.57764 7.04395C1.3667 7.01465 1.16309 6.97217 0.966797 6.9165C0.773438 6.85791 0.588867 6.78613 0.413086 6.70117V5.43555C0.717773 5.57031 1.03418 5.69189 1.3623 5.80029C1.69043 5.90869 2.01562 5.96289 2.33789 5.96289C2.56055 5.96289 2.73926 5.93359 2.87402 5.875C3.01172 5.81641 3.11133 5.73584 3.17285 5.6333C3.23438 5.53076 3.26514 5.41357 3.26514 5.28174C3.26514 5.12061 3.21094 4.98291 3.10254 4.86865C2.99414 4.75439 2.84473 4.64746 2.6543 4.54785C2.4668 4.44824 2.25439 4.34131 2.01709 4.22705C1.86768 4.15674 1.70508 4.07178 1.5293 3.97217C1.35352 3.86963 1.18652 3.74512 1.02832 3.59863C0.870117 3.45215 0.739746 3.2749 0.637207 3.06689C0.537598 2.85596 0.487793 2.604 0.487793 2.31104C0.487793 1.92725 0.575684 1.59912 0.751465 1.32666C0.927246 1.0542 1.17773 0.846191 1.50293 0.702637C1.83105 0.556152 2.21777 0.48291 2.66309 0.48291C2.99707 0.48291 3.31494 0.522461 3.6167 0.601562C3.92139 0.677734 4.23926 0.789063 4.57031 0.935547L4.13086 1.99463C3.83496 1.87451 3.56982 1.78223 3.33545 1.71777C3.10107 1.65039 2.8623 1.6167 2.61914 1.6167C2.44922 1.6167 2.3042 1.64453 2.18408 1.7002C2.06396 1.75293 1.97314 1.8291 1.91162 1.92871C1.8501 2.02539 1.81934 2.13818 1.81934 2.26709C1.81934 2.41943 1.86328 2.54834 1.95117 2.65381C2.04199 2.75635 2.17676 2.85596 2.35547 2.95264C2.53711 3.04932 2.7627 3.16211 3.03223 3.29102C3.36035 3.44629 3.64014 3.60889 3.87158 3.77881C4.10596 3.9458 4.28613 4.14355 4.41211 4.37207C4.53809 4.59766 4.60107 4.87891 4.60107 5.21582ZM11.0303 7H9.67236V4.22705H7.12793V7H5.76562V0.575195H7.12793V3.09326H9.67236V0.575195H11.0303V7ZM18.4878 3.77881C18.4878 4.27393 18.4263 4.7251 18.3032 5.13232C18.1802 5.53662 17.9927 5.88525 17.7407 6.17822C17.4917 6.47119 17.1753 6.69678 16.7915 6.85498C16.4077 7.01025 15.9536 7.08789 15.4292 7.08789C14.9048 7.08789 14.4507 7.01025 14.0669 6.85498C13.6831 6.69678 13.3652 6.47119 13.1133 6.17822C12.8643 5.88525 12.6782 5.53516 12.5552 5.12793C12.4321 4.7207 12.3706 4.26807 12.3706 3.77002C12.3706 3.10498 12.479 2.52637 12.6958 2.03418C12.9155 1.53906 13.2524 1.15527 13.7065 0.882812C14.1606 0.610352 14.7378 0.474121 15.438 0.474121C16.1353 0.474121 16.708 0.610352 17.1562 0.882812C17.6074 1.15527 17.9414 1.53906 18.1582 2.03418C18.3779 2.5293 18.4878 3.11084 18.4878 3.77881ZM13.7988 3.77881C13.7988 4.22705 13.8545 4.61377 13.9658 4.93896C14.0801 5.26123 14.2573 5.51025 14.4976 5.68604C14.7378 5.85889 15.0483 5.94531 15.4292 5.94531C15.8159 5.94531 16.1294 5.85889 16.3696 5.68604C16.6099 5.51025 16.7842 5.26123 16.8926 4.93896C17.0039 4.61377 17.0596 4.22705 17.0596 3.77881C17.0596 3.10498 16.9336 2.57471 16.6816 2.18799C16.4297 1.80127 16.0151 1.60791 15.438 1.60791C15.0542 1.60791 14.7407 1.6958 14.4976 1.87158C14.2573 2.04443 14.0801 2.29346 13.9658 2.61865C13.8545 2.94092 13.7988 3.32764 13.7988 3.77881ZM27.7119 0.575195L26.0771 7H24.5259L23.6558 3.625C23.6382 3.56055 23.6147 3.4624 23.5854 3.33057C23.5562 3.19873 23.5254 3.05518 23.4932 2.8999C23.4609 2.7417 23.4316 2.59375 23.4053 2.45605C23.3818 2.31543 23.3657 2.2041 23.3569 2.12207C23.3481 2.2041 23.3306 2.31396 23.3042 2.45166C23.2808 2.58936 23.2529 2.73584 23.2207 2.89111C23.1914 3.04639 23.1621 3.19141 23.1328 3.32617C23.1035 3.46094 23.0801 3.56348 23.0625 3.63379L22.1968 7H20.6499L19.0107 0.575195H20.3511L21.1729 4.08203C21.1963 4.1875 21.2227 4.31348 21.252 4.45996C21.2842 4.60645 21.3149 4.76025 21.3442 4.92139C21.3765 5.07959 21.4043 5.2334 21.4277 5.38281C21.4541 5.5293 21.4731 5.65674 21.4849 5.76514C21.4995 5.65381 21.5186 5.5249 21.542 5.37842C21.5654 5.229 21.5903 5.07812 21.6167 4.92578C21.646 4.77051 21.6753 4.62695 21.7046 4.49512C21.7339 4.36328 21.7603 4.25635 21.7837 4.17432L22.7197 0.575195H24.0073L24.9434 4.17432C24.9639 4.25342 24.9873 4.36035 25.0137 4.49512C25.043 4.62695 25.0723 4.77051 25.1016 4.92578C25.1309 5.08105 25.1572 5.2334 25.1807 5.38281C25.207 5.5293 25.2261 5.65674 25.2378 5.76514C25.2583 5.61865 25.2861 5.44141 25.3213 5.2334C25.3594 5.02246 25.3989 4.81299 25.4399 4.60498C25.4839 4.39697 25.522 4.22266 25.5542 4.08203L26.3716 0.575195H27.7119ZM30.3926 0.575195C30.9756 0.575195 31.4561 0.645508 31.834 0.786133C32.2148 0.926758 32.4976 1.13916 32.6821 1.42334C32.8667 1.70752 32.959 2.06641 32.959 2.5C32.959 2.79297 32.9033 3.04932 32.792 3.26904C32.6807 3.48877 32.5342 3.6748 32.3525 3.82715C32.1709 3.97949 31.9746 4.104 31.7637 4.20068L33.6533 7H32.1416L30.6079 4.53467H29.8828V7H28.5205V0.575195H30.3926ZM30.2959 1.69141H29.8828V3.42725H30.3223C30.7734 3.42725 31.0957 3.35254 31.2891 3.20312C31.4854 3.05078 31.5835 2.82812 31.5835 2.53516C31.5835 2.23047 31.478 2.01367 31.2671 1.88477C31.0591 1.75586 30.7354 1.69141 30.2959 1.69141ZM40.2935 3.77881C40.2935 4.27393 40.2319 4.7251 40.1089 5.13232C39.9858 5.53662 39.7983 5.88525 39.5464 6.17822C39.2974 6.47119 38.981 6.69678 38.5972 6.85498C38.2134 7.01025 37.7593 7.08789 37.2349 7.08789C36.7104 7.08789 36.2563 7.01025 35.8726 6.85498C35.4888 6.69678 35.1709 6.47119 34.9189 6.17822C34.6699 5.88525 34.4839 5.53516 34.3608 5.12793C34.2378 4.7207 34.1763 4.26807 34.1763 3.77002C34.1763 3.10498 34.2847 2.52637 34.5015 2.03418C34.7212 1.53906 35.0581 1.15527 35.5122 0.882812C35.9663 0.610352 36.5435 0.474121 37.2437 0.474121C37.9409 0.474121 38.5137 0.610352 38.9619 0.882812C39.4131 1.15527 39.7471 1.53906 39.9639 2.03418C40.1836 2.5293 40.2935 3.11084 40.2935 3.77881ZM35.6045 3.77881C35.6045 4.22705 35.6602 4.61377 35.7715 4.93896C35.8857 5.26123 36.063 5.51025 36.3032 5.68604C36.5435 5.85889 36.854 5.94531 37.2349 5.94531C37.6216 5.94531 37.9351 5.85889 38.1753 5.68604C38.4155 5.51025 38.5898 5.26123 38.6982 4.93896C38.8096 4.61377 38.8652 4.22705 38.8652 3.77881C38.8652 3.10498 38.7393 2.57471 38.4873 2.18799C38.2354 1.80127 37.8208 1.60791 37.2437 1.60791C36.8599 1.60791 36.5464 1.6958 36.3032 1.87158C36.063 2.04443 35.8857 2.29346 35.7715 2.61865C35.6602 2.94092 35.6045 3.32764 35.6045 3.77881ZM47.4565 3.77881C47.4565 4.27393 47.395 4.7251 47.272 5.13232C47.1489 5.53662 46.9614 5.88525 46.7095 6.17822C46.4604 6.47119 46.144 6.69678 45.7603 6.85498C45.3765 7.01025 44.9224 7.08789 44.3979 7.08789C43.8735 7.08789 43.4194 7.01025 43.0356 6.85498C42.6519 6.69678 42.334 6.47119 42.082 6.17822C41.833 5.88525 41.647 5.53516 41.5239 5.12793C41.4009 4.7207 41.3394 4.26807 41.3394 3.77002C41.3394 3.10498 41.4478 2.52637 41.6646 2.03418C41.8843 1.53906 42.2212 1.15527 42.6753 0.882812C43.1294 0.610352 43.7065 0.474121 44.4067 0.474121C45.104 0.474121 45.6768 0.610352 46.125 0.882812C46.5762 1.15527 46.9102 1.53906 47.127 2.03418C47.3467 2.5293 47.4565 3.11084 47.4565 3.77881ZM42.7676 3.77881C42.7676 4.22705 42.8232 4.61377 42.9346 4.93896C43.0488 5.26123 43.2261 5.51025 43.4663 5.68604C43.7065 5.85889 44.0171 5.94531 44.3979 5.94531C44.7847 5.94531 45.0981 5.85889 45.3384 5.68604C45.5786 5.51025 45.7529 5.26123 45.8613 4.93896C45.9727 4.61377 46.0283 4.22705 46.0283 3.77881C46.0283 3.10498 45.9023 2.57471 45.6504 2.18799C45.3984 1.80127 44.9839 1.60791 44.4067 1.60791C44.0229 1.60791 43.7095 1.6958 43.4663 1.87158C43.2261 2.04443 43.0488 2.29346 42.9346 2.61865C42.8232 2.94092 42.7676 3.32764 42.7676 3.77881ZM51.5083 7L49.9614 1.95947H49.9219C49.9277 2.07959 49.9365 2.26123 49.9482 2.50439C49.9629 2.74463 49.9761 3.00098 49.9878 3.27344C49.9995 3.5459 50.0054 3.79199 50.0054 4.01172V7H48.7881V0.575195H50.6426L52.1631 5.48828H52.1895L53.8022 0.575195H55.6567V7H54.3867V3.95898C54.3867 3.75684 54.3896 3.52393 54.3955 3.26025C54.4043 2.99658 54.4146 2.74609 54.4263 2.50879C54.438 2.26855 54.4468 2.08838 54.4526 1.96826H54.4131L52.7563 7H51.5083Z" fill="#0095E8"/>
</svg>
